<?xml version="1.0" standalone="no"?><!DOCTYPE svg PUBLIC "-//W3C//DTD SVG 1.1//EN" "http://www.w3.org/Graphics/SVG/1.1/DTD/svg11.dtd"><svg t="1769311985468" class="icon" viewBox="0 0 1024 1024" version="1.1" xmlns="http://www.w3.org/2000/svg" p-id="2319" xmlns:xlink="http://www.w3.org/1999/xlink" width="256" height="256"><path d="M94.3616 177.152m151.04 0l536.2176 0q151.04 0 151.04 151.04l0 374.1184q0 151.04-151.04 151.04l-536.2176 0q-151.04 0-151.04-151.04l0-374.1184q0-151.04 151.04-151.04Z" fill="#FFE8B2" p-id="2320"></path><path d="M694.5792 183.296s135.2192 63.3344 135.2192 155.2896v364.9024c0 27.136 8.1408 122.112-105.8816 146.2272 76.8 0 213.4016-40.96 213.4016-177.92v-348.16c0-57.3952-70.0416-170.496-242.7392-140.3392z" fill="#E8BC70" p-id="2321"></path><path d="M494.2848 479.488L244.6336 258.0992C286.72 211.712 350.6176 183.296 350.6176 183.296 168.96 153.1392 94.8736 266.24 94.8736 323.5328v348.16C94.8736 808.96 239.0528 849.92 319.744 849.92c-120.064-24.32-111.5648-119.296-111.5648-146.432V345.6512l263.2704 241.7152 58.7776 3.0208 286.72-259.328-283.6992 152.8832a33.6896 33.6896 0 0 1-38.9632-4.4544z" fill="#FFF2D7" p-id="2322"></path><path d="M944.5888 260.2496a2.8672 2.8672 0 0 0 0-0.6144c-0.3072-0.8192-0.768-1.5872-1.1264-2.4064-1.024-2.4064-2.0992-4.7616-3.2768-7.0656s-1.7408-3.4304-2.6112-5.12-1.4336-2.5088-2.0992-3.7888l-7.1168-11.2128-0.512-0.768a176.2304 176.2304 0 0 0-75.4688-62.8736l-3.6864-1.536-5.5808-2.2528c-2.816-1.024-5.6832-2.048-8.6016-2.9696l-4.0448-0.9216q-3.84-1.0752-7.68-1.9968l-3.6864-0.8704c-3.584-0.768-7.2192-1.4848-10.9056-2.048h-1.4336c-3.4304-0.512-6.8608-0.8704-10.24-1.1776h-3.1232c-3.8912-0.256-7.8336-0.4608-11.776-0.4608H245.4016c-3.9424 0-7.8336 0-11.6736 0.4096h-2.6624c-3.6864 0.3072-7.3728 0.7168-11.008 1.2288h-0.3072c-4.1984 0.6144-8.2944 1.3824-12.3392 2.2528a175.5136 175.5136 0 0 0-57.088 23.808l-0.6656 0.4096a175.7696 175.7696 0 0 0-18.5856 13.9264l-2.1504 1.8432c-2.4576 2.1504-4.8128 4.352-7.168 6.6048l-1.8432 1.8944q-3.2256 3.2768-6.2976 6.7584c-0.9728 1.024-1.8944 2.0992-2.816 3.2256-1.6384 1.9456-3.2768 3.9424-5.12 5.9904l-2.7648 3.6864c-1.7408 2.3552-3.4304 4.7104-5.12 7.168l-2.2528 3.4816c-1.5872 2.5088-3.072 5.12-4.5568 7.68-0.3072 0.6144-0.6656 1.1776-1.024 1.792-1.792 3.2768-3.3792 6.6048-5.12 10.24l-0.6144 1.2288a2.8672 2.8672 0 0 0 0 0.6144 175.36 175.36 0 0 0-15.36 72.3456v374.1184a176.7936 176.7936 0 0 0 176.64 176.64h536.064a176.8448 176.8448 0 0 0 176.64-176.64V328.192a175.7184 175.7184 0 0 0-13.6192-67.9424zM781.568 202.752h9.7792l5.12 0.512 2.56 0.3584c1.7408 0 3.4816 0.512 5.12 0.8192l2.2016 0.4096c2.2528 0.4608 4.4544 0.9728 6.656 1.536l3.2768 0.9216 3.328 1.024 3.9936 1.3312 2.0992 0.768a126.3616 126.3616 0 0 1 62.9248 52.2752l-338.9952 286.0544a57.7024 57.7024 0 0 1-75.264-0.4096L140.1856 259.9424a7.0144 7.0144 0 0 0 0.6656-1.024c0.8192-1.2288 1.6896-2.4576 2.56-3.6352s1.28-1.8432 1.9456-2.7136 2.3552-3.0208 3.584-4.5056l1.9456-2.2528 2.7136-3.1232 1.9456-2.048 3.584-3.5328 1.3824-1.28c1.792-1.6384 3.584-3.2256 5.4784-4.7616 1.8944-1.536 3.84-2.9696 5.7856-4.4032l0.6656-0.4608a125.7472 125.7472 0 0 1 48.9984-21.0432h0.3584l6.7584-1.0752h1.5872l5.7856-0.5632H781.568z m125.44 499.5584a125.5936 125.5936 0 0 1-125.44 125.44H245.4016a125.5936 125.5936 0 0 1-125.44-125.44V328.192a124.928 124.928 0 0 1 1.1776-17.0496l227.2768 196.352-166.0928 162.4576a25.6 25.6 0 1 0 35.84 36.608l168.96-165.4784 53.76 46.3872a108.6464 108.6464 0 0 0 141.7728 0.8192l57.344-48.3328 159.8464 163.3792a25.6 25.6 0 1 0 36.5568-35.84L679.3728 506.88 906.24 315.2896a119.6032 119.6032 0 0 1 0.6656 12.9024z" fill="#434A54" p-id="2323"></path></svg>
